<?xml version="1.0" encoding="utf-8"?>
<!-- Generator: Adobe Illustrator 24.0.1, SVG Export Plug-In . SVG Version: 6.00 Build 0)  -->
<svg version="1.1" id="レイヤー_1" xmlns="http://www.w3.org/2000/svg" xmlns:xlink="http://www.w3.org/1999/xlink" x="0px"
	 y="0px" viewBox="0 0 18 18" style="enable-background:new 0 0 18 18;" xml:space="preserve">
<style type="text/css">
	.st0{fill-rule:evenodd;clip-rule:evenodd;fill:#333;}
</style>
<title>note</title>
<g id="white_x2F_logo_x5F_symbol">
	<path id="Shape" class="st0" d="M7.1,6.1V4.7c0-0.2,0-0.3,0-0.5C7.2,3.9,7.6,3.6,8,3.6c0.4,0,0.8,0.3,0.9,0.6c0,0.1,0,0.2,0,0.5
		v2.1c0,0.1,0,0.3,0,0.4C8.8,7.5,8.5,7.8,8.2,7.9c-0.1,0-0.2,0-0.4,0H5.7c-0.2,0-0.3,0-0.5,0C4.9,7.8,4.6,7.4,4.6,7
		c0-0.4,0.3-0.8,0.6-0.9c0.1,0,0.2,0,0.5,0L7.1,6.1L7.1,6.1z M14.7,15.7H3.3v-10c0-0.1,0-0.2,0.1-0.3l3-2.9c0.1-0.1,0.2-0.1,0.3-0.1
		h8L14.7,15.7L14.7,15.7z M16,0c-0.1,0-0.1,0-0.3,0H6.4C6.3,0,6.2,0,6.1,0C5.7,0,5.3,0.2,5,0.5L1.5,4C1.2,4.3,1,4.7,1,5.1
		c0,0.1,0,0.2,0,0.3v11.3C1,16.9,1,17,1,17c0,0.5,0.5,0.9,1,1c0.1,0,0.1,0,0.3,0h13.4c0.1,0,0.2,0,0.3,0c0.5,0,0.9-0.5,1-1
		c0-0.1,0-0.1,0-0.3V1.3c0-0.1,0-0.2,0-0.3C16.9,0.5,16.5,0.1,16,0z"/>
</g>
</svg>
