<svg xmlns="http://www.w3.org/2000/svg" viewBox="0 0 40 18"><defs><style>.cls-1{fill:#fff;}.cls-2{fill:#666;}.cls-3{fill:#cc2926;}</style></defs><rect class="cls-1" width="40" height="18"/><path class="cls-2" d="M39,1V17H1V1H39m1-1H0V18H40V0Z"/><path class="cls-3" d="M9.9,13.72A8.09,8.09,0,0,0,10,12.43V7A9,9,0,0,0,9.9,5.73c.43,0,.74,0,1.27,0h2.09a2.84,2.84,0,0,1,2.13.71A2.34,2.34,0,0,1,16,8.19,2.57,2.57,0,0,1,15.34,10a2.83,2.83,0,0,1-2.13.72H11.3v1.67a8.06,8.06,0,0,0,.08,1.3ZM13.21,9.6a1.26,1.26,0,0,0,1.42-1.37,1.35,1.35,0,0,0-.33-1,1.37,1.37,0,0,0-1.09-.36H11.3V9.6Z"/><path class="cls-3" d="M17.09,7A8.38,8.38,0,0,0,17,5.73c.4,0,.64,0,1.27,0h1.81a3.57,3.57,0,0,1,2.7.88,4,4,0,0,1,1.11,3,4.21,4.21,0,0,1-1.18,3.18,3.55,3.55,0,0,1-2.62.87H18.28c-.61,0-.86,0-1.27,0a8.09,8.09,0,0,0,.08-1.32ZM20,12.54a2.2,2.2,0,0,0,1.77-.64,3.17,3.17,0,0,0,.73-2.22,3,3,0,0,0-.69-2.14,2.24,2.24,0,0,0-1.8-.6h-1.6v5.6Z"/><path class="cls-3" d="M26.48,12.28a8.63,8.63,0,0,0,.08,1.44H25.07a8.43,8.43,0,0,0,.08-1.42V7a8.64,8.64,0,0,0-.08-1.3c.41,0,.66,0,1.27,0h2.8a10.22,10.22,0,0,0,1.37-.07V7A9.56,9.56,0,0,0,29.14,7H26.48V9.09h2.14A9.87,9.87,0,0,0,30,9v1.33a9.77,9.77,0,0,0-1.36-.07H26.48Z"/></svg>